<?xml version="1.0" encoding="utf-8"?>
<!-- Generator: Adobe Illustrator 23.0.1, SVG Export Plug-In . SVG Version: 6.00 Build 0)  -->
<svg version="1.1" id="Ebene_1" xmlns="http://www.w3.org/2000/svg" xmlns:xlink="http://www.w3.org/1999/xlink" x="0px" y="0px"
	 viewBox="0 0 1585 779.7" style="enable-background:new 0 0 1585 779.7;" xml:space="preserve">
<style type="text/css">
	.st0{fill:#002878;}
	.st1{fill-rule:evenodd;clip-rule:evenodd;fill:#71CC98;}
</style>
<title>kreislogo</title>
<path class="st0" d="M693.9,664.7l3-0.5c11-1.9,18.8-2.8,23.4-2.8c3.3,0,5.4,1.2,6.2,3.5c0.5,1.5,0.2,2.4-0.9,2.9
	c-1.4,0.5-2.9,0.7-4.3,0.7c-13.4,0.7-23.3,2.1-29.7,4.1c-1.5,3.6-3.2,10.3-5,20c-1,5.2-1.6,10.5-1.6,15.8c1.1-0.3,2.1-0.7,3.2-1.1
	c5.1-1.7,10.4-3.2,15.7-4.4c4.4-0.8,8.9-1.2,13.4-1.2c2.3-0.1,4.5,0.2,6.7,0.9c1.3,0.5,2.4,1.5,2.8,2.8c0.5,1.4,0.1,2.3-1.2,2.8
	c-1.6,0.3-3.2,0.4-4.8,0.3c-13.7,0.6-25.1,3.6-34.2,8.8c-1,0.6-2.1,1-3.3,1c-1.7-0.1-3.4-0.8-4.7-2c-1.2-0.8-2.1-2-2.7-3.3
	c-0.4-1.1-0.3-5.3,0.5-12.5c1.4-12.2,3.9-24.1,7.6-35.8c1.2-3.9,3.7-10.6,7.5-19.9c0.8-2.2,1.7-4.3,2.5-6.4
	c-2.1-0.3-3.8-1.7-4.5-3.6c-0.5-1.2,0-2.5,1.1-3.1c0.1,0,0.2-0.1,0.3-0.1c2.4-1.1,7.3-2.2,14.7-3.2c9.6-1.4,19.2-2.2,28.8-2.3
	c4.6,0,7.3,1,8,3.1c0.6,1.3,0.2,2.8-1,3.7c-1.1,0.6-2.3,0.9-3.5,0.8l-1.8-0.1h-2.6c-3.8,0-9.2,0.3-16.1,1
	c-5.1,0.4-10.2,1.3-15.1,2.6c0.6,0.4,1,1,1.4,1.6c0.3,0.8-0.3,2.5-1.8,5.3l-2,5c-2.3,5-4.2,10.2-5.7,15.5L693.9,664.7z"/>
<path class="st0" d="M751.7,674.3c0.9,0,1.8,0.3,2.5,0.9c0.5,0.4,0.9,0.9,1.2,1.5c0.3,0.8,0,2.2-0.8,4.1c-2.9,7.3-4.6,13.3-5.2,18
	c-0.7,4.9-1.1,9.9-1.2,14.9c0,2.3-0.9,3.4-2.7,3.4c-1.1,0-2.1-0.4-2.9-1.1c-0.7-0.5-1.2-1.1-1.5-1.9c-0.5-1.3-0.5-5.9,0.2-13.6
	c0.7-7,2.6-13.8,5.6-20.1c0.7-1.7,1.5-3.3,2.5-4.8C749.7,674.8,750.7,674.3,751.7,674.3L751.7,674.3z M757.6,649.1
	c2.1-0.2,4,1.1,4.7,3.1c0.7,1.9,0.3,4-1.2,6.3s-3.2,3.3-5.2,3.3c-1,0-2-0.4-2.8-1c-0.8-0.5-1.4-1.3-1.7-2.2
	c-0.8-2.2-0.2-4.5,1.7-6.9C754.4,650,756,649,757.6,649.1L757.6,649.1z"/>
<path class="st0" d="M776.4,691.6c0.5-0.6,1-1.1,1.4-1.7c7.7-9.2,13.4-13.8,17.2-13.8c1.9-0.1,3.6,1.1,4.1,2.9c0.5,1.3,0.2,3-1,4.8
	c-6.4,10.1-8.3,19-5.5,26.7c1.1,2.7,2.8,5.2,5,7.1c0.8,0.7,1.5,1.5,2,2.4c0.2,0.5,0,1.2-0.4,1.5c-0.5,0.7-1.3,1.1-2.1,1
	c-2.2,0-4.4-1.2-6.7-3.5s-4-5-5.1-8.1c-2.2-6.1-1.9-12.8,0.8-20.3c-5.7,3.9-9.9,10.9-12.5,20.9c-0.7,2.4-2,3.6-3.8,3.6
	c-0.9,0-1.8-0.3-2.5-0.8c-0.9-0.6-1.6-1.4-2-2.5c-0.9-2.4,0.1-8.8,2.8-19.2c1-4.2,2.3-8.2,3.8-12.2c1.1-2.5,2.4-3.7,3.8-3.7
	c0.8,0,1.6,0.3,2.3,0.8c0.9,0.5,1.5,1.3,1.9,2.2c0.3,1,0.1,2.4-0.8,4.3C778,686.6,777.2,689.1,776.4,691.6L776.4,691.6z"/>
<path class="st0" d="M810.1,682.9c2.7-14.9,6.2-27.1,10.5-36.4c3-6.3,5.6-10.9,8-13.8c1.6-2,3.3-3.1,5-3.1c0.6,0,1.3,0.2,1.8,0.5
	c0.8,0.4,1.4,1,1.8,1.8c0.4,1,0,2.4-1.2,4.3c-7.6,11.4-13.2,25.1-16.9,41c7.4-2.8,12.8-4.2,16.1-4.2c2.3,0,4.6,0.5,6.6,1.6
	c1.7,0.7,3,2.1,3.8,3.7c0.3,0.6,0.2,1.4-0.2,2c-0.5,0.9-1.6,1.4-2.6,1.3c-0.9,0-2.9-0.6-6-1.9c-1-0.3-2-0.5-3-0.5
	c-5.3,0-10.8,2.1-16.8,6.2c3.2,1,6.1,2.7,8.5,5c3,3.1,5.2,6.8,6.6,10.9c4,11.1,4.4,22.7,1.1,35c-1.4,5.3-3.2,9.3-5.3,12
	c-2,2.8-5.2,4.4-8.6,4.4c-2.8-0.1-5.6-1.2-7.6-3.2c-2.1-2.1-3.7-4.6-4.7-7.4c-2.4-6.7-3.1-16.7-2-30.2c0.2-1.6,0.8-5.8,1.8-12.5
	c0.3-1.7,0.5-3.5,0.7-5.4c-0.4,0.1-0.7,0.1-1.1,0.1c-1.3,0.1-2.5-0.7-2.9-2C802.8,689.7,805,686.6,810.1,682.9L810.1,682.9z
	 M816,691.7c-1.2,4.8-2.3,12.5-3.3,23.2c-1.1,10.9-0.5,19.4,1.7,25.4c0.4,1.2,1.2,2.3,2.2,3.1c0.8,0.8,1.9,1.3,3.1,1.3
	c3.3,0,5.9-4.7,7.8-14.1c2.2-10.5,1.8-20.1-1.4-28.8c-0.9-3-2.7-5.6-5-7.7C819.5,693.2,817.8,692.3,816,691.7L816,691.7z"/>
<path class="st0" d="M869.2,703.7c-0.7,2.3-1.6,4.5-2.7,6.7c-2,3.5-4.7,5.3-8,5.3c-3-0.1-5.8-1.3-7.9-3.5c-1.5-1.5-2.7-3.3-3.4-5.3
	c-1.8-5.4-2-11.2-0.5-16.6c1.7-6.7,4.8-11.9,9.3-15.5c2.7-2.3,6.2-3.5,9.7-3.5c2.2,0,4.3,0.6,6.2,1.8c1.4,0.8,2.5,2,3.2,3.5
	c0.4,1.4,0.4,2.8,0.2,4.2c0.9,0.6,1.6,1.5,2.1,2.5c0.3,1,0.2,2.5-0.5,4.7c-0.9,2.9-1.3,5.8-1.4,8.8c-0.3,3.2,0,6.3,0.9,9.4
	c0.7,1.9,2,3.5,3.7,4.7c1.2,0.6,2.5,1.2,3.8,1.5c1.4,0.4,2.5,1.5,3,2.8c0.4,0.7,0.2,1.6-0.3,2.1c-0.7,0.6-1.5,0.9-2.4,0.9
	c-3.1-0.1-6.1-1.2-8.5-3.2c-2.3-1.7-4-4-4.9-6.7C870.2,707.3,869.8,705.8,869.2,703.7L869.2,703.7z M871.1,681.4
	c-0.8-0.9-1.8-1.6-2.9-2.2c-0.8-0.5-1.7-0.7-2.6-0.7c-4,0-7.3,3-9.8,9c-2.8,6.7-3.3,12.3-1.7,16.9c0.3,1,0.9,1.9,1.7,2.6
	c0.7,0.6,1.6,0.9,2.5,0.9c2.5,0,4.7-2.3,6.4-6.9c1.3-3.6,2.3-7.4,3-11.2c0.4-2.2,1-4.3,1.7-6.4C869.9,682.5,870.4,681.9,871.1,681.4
	L871.1,681.4z"/>
<path class="st0" d="M908.7,672.8c4.2,0,6.9,1.9,8.3,5.6c1.2,3.3,0.9,7-0.9,10c-1.4,2.5-3,3.8-4.7,3.8c-1.4,0.1-2.6-0.8-3-2.2
	c-0.3-0.6-0.3-1.2,0-1.8c0.4-0.5,0.8-1.1,1.3-1.5c0.8-1,1.4-2.2,1.7-3.5c0.3-0.8,0.3-1.7,0.1-2.5c-0.3-0.7-1-1.2-1.8-1.1
	c-1.1,0-2.5,0.7-4.3,2.2c-2.7,2.4-5,6.1-6.7,11.3c-1.8,5.3-2.1,9.5-1,12.6c0.4,1,1.1,2,2,2.6c1.3,1.1,2.9,1.7,4.7,1.8
	c3.3,0,6.6-1.8,9.9-5.3c2.5-2.7,4.7-5.8,6.4-9.1c0.8-1.7,1.7-2.5,2.7-2.5c0.7,0,1.3,0.3,1.8,0.7c0.5,0.3,0.9,0.8,1.1,1.4
	c0.6,1.7-0.7,4.9-4,9.8c-5.2,7.6-11.1,11.4-17.6,11.4c-3.7,0.1-7.4-1.2-10.2-3.6c-2-1.6-3.6-3.8-4.5-6.3c-1.7-4.7-1.4-10.1,0.9-16.3
	c2-5.6,5.5-10.5,10-14.3C903.1,674.1,905.8,673,908.7,672.8L908.7,672.8z"/>
<path class="st0" d="M950.3,687.1c2.5-3.3,5.3-6.2,8.6-8.8c3.9-3,7-4.5,9.1-4.5c1.1,0.1,2.1,0.4,3,1c1,0.5,1.9,1.4,2.3,2.5
	c0.4,1.2,0,3.1-1.3,5.7c-2.3,4.3-4,8.8-5.1,13.6c-0.7,3.5-0.9,5.9-0.4,7.2c0.4,1.2,1.5,1.9,2.7,1.8c2.9,0,6.1-4.3,9.7-13
	c0.7-1.8,1.7-2.7,2.8-2.7c1,0,2,0.6,2.3,1.7c0.6,1.8-0.2,5.1-2.4,10.1c-1.6,3.9-4.1,7.3-7.3,10c-1.8,1.5-4.1,2.3-6.4,2.4
	c-2.2,0-4.3-0.9-5.8-2.5c-1-1-1.7-2.2-2.2-3.5c-1.4-4-1.4-8.6,0-13.8c0.3-1.2,1.5-4.7,3.4-10.5c-9.1,4.7-14.6,14.7-16.4,30.2
	c-0.1,1.8-0.8,2.7-2.2,2.7c-2,0-3.8-1.3-4.5-3.2c-0.5-1.5-0.4-5.7,0.5-12.7c1.3-11.1,3.2-22.1,5.7-32.9c2.2-9,4.8-18.4,7.9-28.2
	c0.4-1.7,1.1-3.3,2-4.7c0.5-0.8,1.5-1.3,2.4-1.2c1.1,0.1,2.1,0.5,2.9,1.3c0.7,0.6,1.3,1.3,1.6,2.2c0.5,1.3,0.2,3-0.7,5.1
	c-3.2,8.1-5.8,16.4-8,24.9C951.8,677,950.5,683.6,950.3,687.1L950.3,687.1z"/>
<path class="st0" d="M1040,696c-1.8,3.8-3.8,7.4-6.1,10.9c-1.4,2.1-3.1,4-4.9,5.7c-1.5,1.3-3.4,2.1-5.4,2.1c-2-0.1-3.8-0.9-5.1-2.4
	c-1.2-1.1-2.1-2.5-2.7-4.1c-1.8-4.9-0.8-11.7,3-20.3c3.4-7.8,6.6-11.7,9.6-11.7c0.9,0,1.7,0.4,2.5,0.9c0.7,0.4,1.3,1.1,1.6,1.9
	c0.4,1-0.2,2.4-1.6,4.1c-3,3.7-5.4,7.9-6.9,12.5c-1.3,4-1.8,6.6-1.3,7.8c0.2,0.8,1,1.4,1.9,1.4c3.2,0,7.9-5.9,14.2-17.6
	c1.1-2.3,2.4-4.5,3.9-6.6c0.9-1.1,2.2-1.6,3.6-1.6c0.9,0,1.8,0.2,2.7,0.7c0.6,0.3,1.1,0.8,1.4,1.4c0.2,0.5-0.3,2.8-1.3,6.8
	c-2.6,8.7-3.4,14.5-2.3,17.5c0.3,1.1,1.2,1.8,2.3,1.8c1.9,0,3.8-1.9,5.8-5.6c2.1-4.2,3.4-8.8,3.9-13.4c0.3-3.1,0.2-6.2-0.3-9.3
	c-0.5-4.4,0.8-6.6,4-6.6c1.7-0.1,3.2,1,3.6,2.6c2.1,5.9,1.2,14.1-2.8,24.4c-4.1,10.8-8.9,16.2-14.4,16.2c-4,0-6.9-2.2-8.4-6.4
	C1039.3,705.4,1039.2,701.1,1040,696L1040,696z"/>
<path class="st0" d="M1095.3,671.1c4.3,0,7.3,2.2,8.9,6.8c2.2,6,1.7,13.6-1.5,22.8c-3.5,10-8.5,15-15.1,15c-3.1,0-6-1.4-8-3.7
	c-1.2-1.3-2.1-2.8-2.7-4.4c-2.1-5.8-2-12.1,0.2-18.9c1.7-5.8,5.2-10.9,10-14.6C1089.5,672.3,1092.4,671.2,1095.3,671.1L1095.3,671.1
	z M1096.3,696.8c-1.7-0.9-2.5-1.6-2.7-2.1c-0.1-0.3,0.3-1.3,1.5-3c3.1-4.6,4.1-8.3,3.1-11.1c-0.2-0.4-0.4-0.8-0.8-1.1
	c-0.6-0.6-1.5-1-2.3-1c-1.7,0-3.7,1.4-5.9,4.2c-2.7,3.2-4.6,7.1-5.6,11.2c-1,4.4-1,8,0.1,10.9c0.3,0.8,0.8,1.5,1.5,2
	c0.8,0.7,1.9,1.2,3,1.2c2.5,0,4.7-1.6,6.4-4.9c0.7-1.3,1.3-2.7,1.6-4.2C1096.2,698.3,1096.3,697.5,1096.3,696.8L1096.3,696.8z"/>
<path class="st0" d="M1127.4,687.1c2.5-3.3,5.3-6.2,8.6-8.8c3.9-3,7-4.5,9.1-4.5c1.1,0.1,2.1,0.4,3,1c1,0.5,1.9,1.4,2.3,2.5
	c0.4,1.2,0,3.1-1.3,5.7c-2.3,4.3-4,8.8-5.1,13.6c-0.7,3.5-0.9,5.9-0.4,7.2c0.4,1.2,1.5,1.9,2.7,1.8c2.9,0,6.1-4.3,9.7-13
	c0.7-1.8,1.7-2.7,2.8-2.7c1,0,2,0.6,2.3,1.7c0.6,1.8-0.2,5.1-2.4,10.1c-1.6,3.9-4.1,7.3-7.3,10c-1.8,1.5-4.1,2.3-6.4,2.4
	c-2.2,0-4.3-0.9-5.8-2.5c-1-1-1.7-2.2-2.2-3.5c-1.4-4-1.4-8.6,0-13.8c0.3-1.2,1.5-4.7,3.4-10.5c-9.1,4.7-14.6,14.7-16.4,30.2
	c-0.1,1.8-0.8,2.7-2.2,2.7c-2,0-3.8-1.3-4.6-3.2c-0.6-1.5-0.4-5.7,0.5-12.7c1.3-11,3.2-22,5.7-32.8c2.2-9,4.8-18.4,7.9-28.2
	c0.4-1.7,1.1-3.3,2-4.7c0.5-0.8,1.5-1.3,2.4-1.2c1.1,0.1,2.1,0.5,2.9,1.3c0.7,0.6,1.3,1.3,1.6,2.2c0.5,1.3,0.2,3-0.7,5.1
	c-3.2,8.1-5.8,16.4-8,24.9C1128.8,677.1,1127.5,683.7,1127.4,687.1L1127.4,687.1z"/>
<path class="st0" d="M1178.5,692.4c-0.3,3.5-0.5,6.4-0.5,8.5c-0.1,1.5,0.1,3.1,0.4,4.5c0.3,1.1,1.4,1.8,2.5,1.7
	c1.9,0,3.8-1.5,5.7-4.6c1.4-2.6,2.5-5.3,3.4-8.1c0.5-1.5,1.4-2.3,2.6-2.3c1.2-0.1,2.3,0.6,2.7,1.7c0.7,1.9-0.5,5.9-3.6,11.8
	c-3.2,6.2-7.1,9.3-11.8,9.3c-2.1,0-4.1-0.8-5.7-2.2c-1.2-1-2.2-2.3-2.7-3.8c-0.9-2.5-1.3-6-1.1-10.5c0.3-5.5,1-11,2.1-16.3
	c3.2-16.3,7.6-29.8,13.2-40.4c4.5-8.5,9.2-12.8,14.1-12.8c1.6,0,3.2,0.6,4.5,1.6c1.3,0.9,2.3,2.1,2.9,3.6c2.3,6.3-0.5,16.9-8.4,31.6
	c-3.9,7.1-8.6,13.7-14.1,19.7C1183.3,687.2,1181.2,689.4,1178.5,692.4L1178.5,692.4z M1180.2,681.6c8.1-8.1,14.2-18.2,18.4-30.5
	c2.2-6.4,2.9-10.6,2.1-12.7c-0.2-0.9-1.1-1.5-2-1.5c-2.9,0-6.4,5-10.5,14.9C1184.9,659.9,1182.2,669.8,1180.2,681.6L1180.2,681.6z"
	/>
<path class="st0" d="M1245.6,682.9c2.7-14.9,6.2-27.1,10.5-36.4c3-6.3,5.6-10.9,8-13.8c1.6-2,3.3-3.1,5-3.1c0.6,0,1.3,0.2,1.8,0.5
	c0.8,0.4,1.4,1,1.8,1.8c0.4,1,0,2.4-1.2,4.3c-7.6,11.4-13.2,25.1-16.9,41c7.4-2.8,12.8-4.2,16.2-4.2c2.3,0,4.6,0.5,6.6,1.6
	c1.7,0.7,3,2.1,3.8,3.7c0.3,0.6,0.2,1.4-0.2,2c-0.5,0.9-1.6,1.4-2.6,1.3c-0.9,0-2.9-0.6-6-1.9c-1-0.3-2-0.5-3-0.5
	c-5.3,0-10.8,2.1-16.8,6.2c3.2,1,6.1,2.7,8.5,5c3,3.1,5.2,6.8,6.6,10.9c4,11.1,4.4,22.7,1.1,35c-1.4,5.3-3.2,9.3-5.3,12
	c-2,2.8-5.2,4.4-8.6,4.4c-2.8-0.1-5.6-1.2-7.6-3.2c-2.1-2.1-3.7-4.6-4.7-7.4c-2.4-6.7-3.1-16.7-2-30.2c0.2-1.6,0.8-5.8,1.8-12.5
	c0.3-1.7,0.5-3.5,0.7-5.4c-0.4,0.1-0.8,0.1-1.1,0.1c-1.3,0.1-2.5-0.7-2.9-2C1238.3,689.7,1240.4,686.6,1245.6,682.9L1245.6,682.9z
	 M1251.5,691.7c-1.2,4.8-2.3,12.5-3.3,23.2c-1.1,10.9-0.5,19.4,1.7,25.4c0.5,1.2,1.2,2.3,2.2,3.1c0.8,0.8,1.9,1.3,3.1,1.3
	c3.3,0,5.9-4.7,7.8-14.1c2.2-10.5,1.8-20.1-1.4-28.8c-0.9-3-2.7-5.6-5-7.7C1254.9,693.2,1253.3,692.3,1251.5,691.7L1251.5,691.7z"/>
<path class="st0" d="M1303.8,704.5c-1,2.3-2.3,4.4-3.7,6.5c-2,2.9-4.5,4.3-7.5,4.3c-2.7,0-5.2-1.1-7.1-3c-1.5-1.4-2.6-3.1-3.3-5
	c-2.1-5.8-1.6-12.5,1.4-20.1c1.1-3,2.8-5.8,5.1-8.1c1.5-1.5,2.9-2.2,4.3-2.2c0.8,0,1.7,0.3,2.3,0.8c0.6,0.3,1.1,0.9,1.3,1.5
	c0.3,0.9-0.2,2.3-1.4,4.2c-2.5,3.8-4.3,8-5.5,12.3c-1,4.4-1.1,7.8-0.2,10.3c0.2,0.6,0.5,1.1,1,1.5c0.5,0.3,1.1,0.5,1.6,0.5
	c2.7,0,5.2-3.3,7.7-9.9c1.3-3.7,2.1-7.5,2.3-11.4c0.1-2.1,0.6-4.1,1.5-6c0.6-1.4,2-2.3,3.5-2.4c0.9,0,1.7,0.3,2.4,0.9
	c0.8,0.5,1.4,1.2,1.8,2.1c0.6,1.6,0.1,5.3-1.5,11c-1.1,3.9-1.1,7.2-0.2,9.8c1,2.8,2.8,5.3,5.2,7.2c1.7,1,3.4,1.9,5.3,2.6
	c1.3,0.5,2.3,1.6,2.8,2.9c0.3,0.7,0.1,1.6-0.5,2.1c-0.7,0.6-1.7,1-2.7,0.9c-2.9-0.1-5.8-1-8.2-2.7c-2.7-1.8-4.8-4.2-6.3-7
	C1305.2,707.7,1304.6,706.5,1303.8,704.5L1303.8,704.5z M1300.4,647.8c1.1,0,2.1,0.3,3,1c0.8,0.5,1.4,1.3,1.7,2.2
	c0.7,1.9,0.3,4-1.2,6.3s-3.1,3.3-5.2,3.3c-1,0-2-0.3-2.9-1c-0.8-0.6-1.4-1.3-1.7-2.2c-0.8-2.1-0.2-4.4,1.7-6.8
	C1297.3,648.8,1298.8,647.8,1300.4,647.8L1300.4,647.8z M1317,647.8c1.1,0,2.1,0.3,3,1c0.8,0.5,1.4,1.3,1.7,2.2
	c0.7,1.9,0.3,4-1.2,6.3s-3.1,3.3-5.2,3.3c-1,0-2-0.3-2.8-1c-0.8-0.5-1.4-1.3-1.8-2.2c-0.8-2.1-0.2-4.4,1.7-6.8
	C1313.8,648.8,1315.4,647.8,1317,647.8L1317,647.8z"/>
<path class="st0" d="M1336.8,687.1c2.5-3.3,5.3-6.2,8.6-8.8c3.9-3,7-4.5,9.1-4.5c1.1,0.1,2.1,0.4,3,1c1,0.5,1.8,1.4,2.3,2.5
	c0.5,1.2,0,3.1-1.3,5.7c-2.3,4.3-4,8.8-5.1,13.6c-0.7,3.5-0.9,5.9-0.4,7.2c0.4,1.2,1.5,1.9,2.7,1.8c2.9,0,6.1-4.3,9.7-13
	c0.7-1.8,1.7-2.7,2.8-2.7c1,0,2,0.6,2.3,1.7c0.6,1.8-0.2,5.1-2.4,10.1c-1.6,3.9-4.1,7.3-7.3,10c-1.8,1.5-4.1,2.3-6.4,2.4
	c-2.2,0-4.3-0.9-5.8-2.5c-1-1-1.7-2.2-2.2-3.5c-1.5-4-1.5-8.6,0-13.8c0.3-1.2,1.5-4.7,3.4-10.5c-9.1,4.7-14.6,14.7-16.4,30.2
	c-0.1,1.8-0.8,2.7-2.2,2.7c-1,0-2-0.3-2.8-0.9c-0.8-0.6-1.4-1.4-1.8-2.3c-0.5-1.5-0.4-5.7,0.5-12.7c1.3-11,3.2-22,5.7-32.8
	c2.2-9,4.8-18.4,7.9-28.2c0.4-1.7,1.1-3.3,2-4.7c0.5-0.8,1.5-1.3,2.4-1.2c1.1,0.1,2.1,0.5,2.9,1.3c0.7,0.6,1.3,1.3,1.6,2.2
	c0.5,1.3,0.2,3-0.7,5.1c-3.2,8.1-5.8,16.4-8,24.9C1338.2,677.1,1336.9,683.7,1336.8,687.1L1336.8,687.1z"/>
<path class="st0" d="M1383.1,692.4c-0.3,3.5-0.5,6.4-0.5,8.5c-0.1,1.5,0.1,3.1,0.4,4.5c0.3,1.1,1.4,1.8,2.5,1.7
	c1.9,0,3.8-1.5,5.7-4.6c1.4-2.6,2.5-5.3,3.4-8.1c0.6-1.5,1.4-2.3,2.7-2.3c1.2-0.1,2.3,0.6,2.7,1.7c0.7,1.9-0.5,5.9-3.6,11.8
	c-3.2,6.2-7.1,9.3-11.8,9.3c-2.1,0-4.1-0.8-5.7-2.2c-1.2-1-2.2-2.3-2.7-3.8c-0.9-2.5-1.3-6-1.1-10.5c0.3-5.5,1-11,2.1-16.3
	c3.2-16.3,7.6-29.8,13.2-40.4c4.5-8.5,9.2-12.8,14.1-12.8c1.6,0,3.2,0.6,4.5,1.6c1.3,0.9,2.3,2.1,2.9,3.6c2.3,6.3-0.5,16.9-8.4,31.6
	c-3.9,7.1-8.6,13.7-14.1,19.7C1387.9,687.2,1385.7,689.4,1383.1,692.4z M1384.8,681.6c8.1-8.1,14.2-18.2,18.4-30.5
	c2.2-6.4,2.9-10.6,2.2-12.7c-0.2-0.9-1.1-1.5-2-1.5c-2.9,0-6.4,5-10.5,14.9C1389.5,659.9,1386.8,669.8,1384.8,681.6L1384.8,681.6z"
	/>
<path class="st0" d="M1414.5,701.9l0.4,1.2c0.4,1,1,1.9,1.8,2.6c2.1,1.7,4.7,2.6,7.4,2.5c6.6,0,12.7-4.3,18.2-13c1-1.5,2-2.3,3-2.3
	c0.7,0,1.3,0.3,1.9,0.7c0.4,0.3,0.6,0.6,0.8,1c0.6,1.8-0.8,4.8-4.4,9c-2.7,3.3-6,6-9.8,8.1c-3.4,2-7.4,3.1-11.3,3.1
	c-3.8,0-7.6-1.2-10.6-3.5c-2.2-1.7-3.8-4-4.7-6.6c-2.8-7.6-1.3-15.1,4.5-22.5c4.7-6,9.5-8.9,14.6-8.9c1.4,0,2.9,0.4,4.1,1.1
	c1.6,0.8,2.8,2.1,3.4,3.7c0.9,2.4,0.6,5.3-0.7,8.8C1430.4,694.1,1424.2,699.1,1414.5,701.9L1414.5,701.9z M1414.3,696.6
	c2.7-0.7,5.2-2,7.4-3.7c2.6-2.2,4.7-5,5.8-8.3c0.4-0.9,0.4-2,0.1-2.9s-1.1-1.4-2-1.4c-1.4,0-3,0.9-4.9,2.7
	C1417.3,686.1,1415.2,690.7,1414.3,696.6L1414.3,696.6z"/>
<path class="st0" d="M1468.6,691.6c0.5-0.6,1-1.1,1.4-1.7c7.7-9.2,13.4-13.8,17.2-13.8c1.9-0.1,3.6,1.1,4.1,2.9c0.5,1.3,0.2,3-1,4.8
	c-6.4,10.1-8.3,19-5.5,26.7c1.1,2.7,2.8,5.2,5,7.1c0.8,0.7,1.5,1.5,2,2.4c0.2,0.5,0,1.2-0.4,1.5c-0.5,0.7-1.3,1.1-2.1,1
	c-2.2,0-4.4-1.2-6.7-3.5c-2.3-2.3-4-5-5.1-8.1c-2.2-6.1-1.9-12.8,0.8-20.3c-5.7,3.9-9.9,10.9-12.5,20.9c-0.7,2.4-2,3.6-3.8,3.6
	c-0.9,0-1.8-0.3-2.5-0.8c-0.9-0.6-1.6-1.4-2-2.5c-0.9-2.4,0.1-8.8,2.8-19.2c1-4.2,2.3-8.2,3.8-12.2c1.1-2.5,2.3-3.7,3.8-3.7
	c0.8,0,1.6,0.3,2.3,0.8c0.9,0.5,1.5,1.3,1.9,2.2c0.4,1,0.1,2.4-0.8,4.3C1470.2,686.4,1469.3,689,1468.6,691.6L1468.6,691.6z"/>
<path class="st0" d="M1528,629.3c1.2,0,2.3,0.4,3.2,1.2c0.7,0.6,1.3,1.4,1.6,2.3c0.7,1.9,0.3,5.3-1,10.5
	c-5.4,20.8-10.9,38.3-16.3,52.2c-0.6,1.5-1.1,3-1.5,4.6c-0.6,2.2-1.6,3.3-3.1,3.3c-1.3-0.1-2.5-0.6-3.3-1.5c-0.9-0.7-1.6-1.7-2-2.8
	c-0.5-1.3-0.3-3,0.4-5.3c0.2-0.6,1.2-3.1,2.9-7.4c2-6,4-11.9,6-17.8c0.7-2,2.4-8.5,5.4-19.3c1.1-3.8,1.9-6.8,2.6-8.9
	c0.8-2.6,1.4-5.3,2-8C1525.2,630.4,1526.3,629.3,1528,629.3L1528,629.3z M1505.7,709.9c1.3,0,2.5,0.5,3.4,1.3
	c0.7,0.6,1.3,1.4,1.6,2.3c0.8,2.2,0.9,4.5,0.4,6.7c-0.5,2.5-2,3.7-4.3,3.7c-2.3,0.1-4.3-1.3-4.9-3.5c-0.8-2.3-0.9-4.9-0.1-7.2
	C1502.5,711,1503.8,709.9,1505.7,709.9L1505.7,709.9z"/>
<path class="st1" d="M406.2,554.8c32.1-7.5,54.5-28.8,94.8-29.6c12.7-0.1,18.6,10.4,29.9,16.7c8.3,4.6,17.5,7.1,27,7.3
	c31.9,0,57.5-20.1,85.1-35.2c12.5-6.9,27.5-10.6,40-14.7c8.9-2.9,19.2-4.7,28.9-1c10.9,4.2,22.3,21.3,39.4,37.5
	c27.1,25.8,45.5-21.4,71.7-21.4c17.5,0,25.4,28,47.2,27.6c45.5-0.9,77.9-54.6,115.5-81.1c10-7,21.2-14,33.6-13.7
	c24.4,0.7,47.4,29.5,64.4,55.5C1101,518,1101,526,1129.9,526c20.9,0,53.9-22.3,72.6-35.6c31.4-22.4,51.1-46.6,63-9.8
	c12.8,39.6,53.3,10.7,71.7-1.8c10.5-8.9,28-33,37.6-33c17.5,0,17.5,16.9,34.1,8.9c9.2-4.5,17.7-22.7,26.7-35.5s18.4-20.2,25.8-27.7
	c1.8-1.8,14-11.8,26.7-15.9s35.4,4.8,35.4,15.9c4,43.1,10,121.9,10.5,163.2v62.4H51.4v-62.3L406.2,554.8L406.2,554.8z"/>
<path class="st1" d="M793.4,44c145,0,264.4,109.3,274.8,247.1h-28.9C1029,168.7,922.5,71.9,793.4,71.9s-235.5,96.8-245.9,219.2
	h-28.9C529,153.3,648.5,44,793.4,44z"/>
<polygon class="st0" points="659.4,291.4 659.4,291.4 652.1,291.4 644.9,291.4 644.9,291.4 644.9,176.5 644.9,176.5 652.1,176.5 
	659.4,176.5 659.4,176.5 659.4,228.6 659.4,228.6 701.3,176.5 701.3,176.5 710.6,176.5 720,176.5 720,176.5 674.9,231 674.9,231 
	731.2,291.4 731.2,291.4 721.2,291.4 711.2,291.4 711.2,291.4 659.4,234.5 659.4,234.5 "/>
<path class="st0" d="M741.6,291.4v-75.6h13.2v17.5l0,0c1.3-3,2.9-5.9,4.7-8.6c4.8-7.1,9.9-10.7,15.3-10.7c5.9,0,11.1,3,15.6,9.1
	l-7.2,13.9l-0.2-0.3c-4.2-5.6-7.9-8.5-11.3-8.5c-4.7-0.2-9.1,2-11.9,5.7c-2.9,3.9-4.6,9.4-5.1,16.8l0,0v40.6L741.6,291.4
	L741.6,291.4z"/>
<path class="st0" d="M831.3,293.1c-10.2,0-18.6-3.7-25.1-11c-6.5-7.3-9.8-16.8-9.8-28.4c0-11.6,2.8-21.1,8.4-28.5
	c5.6-7.4,12.9-11.1,21.7-11.1c9.6,0,17.1,3.4,22.3,10.3c5.2,6.9,7.9,16.7,7.8,29.3v2.7h-46.5c0.3,5.6,2.4,11,6,15.3
	c3.9,4.7,9.7,7.3,15.8,7.1c4.4,0,8.8-1,12.8-2.8c4.5-2.2,8.5-5.2,12-8.8V283c-3.6,3.2-7.8,5.8-12.2,7.7
	C840.3,292.3,835.8,293.1,831.3,293.1L831.3,293.1z M844,246.4L844,246.4c-0.6-5.3-1.9-9.5-3.9-12.6c-2.9-4.5-7.2-6.7-12.9-6.7
	c-5.1,0-9.2,2.4-12.4,7.2c-2.3,3.7-3.8,7.8-4.3,12.1H844L844,246.4z"/>
<path class="st0" d="M871.5,291.4v-75.6h13.2v75.6H871.5L871.5,291.4z M878.1,183.2c2.2,0,4.3,0.9,5.7,2.6c3.1,3.7,3.1,9.1,0,12.8
	c-2.6,3.1-7.3,3.5-10.4,0.9c-0.3-0.3-0.6-0.6-0.9-0.9c-3.1-3.7-3.1-9.1,0-12.8C873.9,184.2,875.9,183.2,878.1,183.2L878.1,183.2z"/>
<path class="st0" d="M942.5,234.9c-2.9-2.4-6.2-4.4-9.6-5.9c-2.9-1.2-6-1.9-9.2-1.9c-2.6-0.1-5.1,0.6-7.2,2
	c-1.8,1.1-2.8,3.1-2.8,5.2c0,1.7,0.9,3.5,2.7,5.2c3,2.6,6.2,4.9,9.7,6.9c7.1,4.3,12.1,8.3,15.1,12.1c2.9,3.6,4.5,8.2,4.5,12.9
	c0,6.6-2.1,11.9-6.4,15.9s-10,5.9-17.1,5.9c-3.4,0-6.9-0.6-10.1-1.7c-4.1-1.5-8-3.4-11.7-5.7v-15.9c3.6,3.1,7.5,5.7,11.7,7.8
	c3.1,1.5,6.5,2.4,10,2.4c2.7,0.1,5.3-0.7,7.4-2.4c1.8-1.4,2.9-3.7,2.8-6c0.1-2.1-0.6-4.1-2.1-5.7c-1.4-1.3-5.6-4.1-12.6-8.2
	c-6.3-3.7-10.7-7.3-13.4-10.9c-2.6-3.4-4-7.6-3.9-11.8c0-6.3,2-11.4,6-15.3s9.3-5.8,15.9-5.8c3.3,0,6.6,0.5,9.8,1.5
	c3.7,1.3,7.2,3,10.5,5.1L942.5,234.9L942.5,234.9z"/>
<polygon class="st0" points="51,533.4 51,533.4 51,313.9 51,313.9 150.1,313.9 150.1,313.9 150.1,327.7 150.1,341.7 150.1,341.7 
	76.2,341.7 76.2,341.7 76.2,408.8 76.2,408.8 148.1,408.8 148.1,422.6 148.1,436.6 148.1,436.6 76.2,436.6 76.2,436.6 76.2,505.5 
	76.2,505.5 153.2,505.5 153.2,505.5 153.2,519.4 153.2,533.4 153.2,533.4 "/>
<path class="st0" d="M327.9,451.7c0,25.4-6.9,45.9-20.8,61.6c-13.9,15.6-32.2,23.4-54.9,23.4s-41-7.8-54.9-23.4
	c-13.9-15.6-20.8-36.1-20.9-61.6V313.9h25.2v132c0,19.7,4.5,35.1,13.4,46.3c8.9,11.1,21.3,16.7,37.1,16.7s28.1-5.6,37.1-16.7
	s13.4-26.6,13.4-46.3v-132h25.2L327.9,451.7L327.9,451.7z"/>
<path class="st0" d="M446.4,361.8c-6.1-7.7-12.4-13.3-18.7-16.9c-6.2-3.6-13.2-5.4-20.3-5.4c-8.9,0-16.1,2.5-21.7,7.5
	s-8.3,11.5-8.3,19.4c0,7.1,2.5,14,7.1,19.5c4.6,5.9,13,13.3,25.2,22c15.9,11.3,27.1,22,33.8,32.1s9.9,21.5,9.9,34.4
	c0,18.9-4.5,34.1-13.5,45.4s-21.1,17-36.2,16.9c-8.9,0.1-17.8-1.6-26-5.2c-7.8-3.4-15.7-9.1-23.8-16.8v-38.8
	c7.7,10.8,15.4,18.8,23.2,24s16,7.9,24.5,7.9s15.1-2.7,20.3-8.1s7.8-12.4,7.8-21c0-7.7-2.4-15.2-7-21.4
	c-4.7-6.3-13.1-13.8-25.2-22.5c-15.9-11.3-27.1-21.8-33.8-31.6c-6.5-9.6-9.9-21-9.8-32.5c0-18.2,4.9-32.8,14.6-43.8
	s22.8-16.4,39.1-16.4c6.6-0.1,13.2,1.1,19.4,3.5c6,2.4,12.5,6.3,19.6,11.9L446.4,361.8L446.4,361.8z"/>
<polygon class="st0" points="506.2,533.4 506.2,533.4 493.6,533.4 481,533.4 481,533.4 481,313.9 481,313.9 493.6,313.9 
	506.2,313.9 506.2,313.9 506.2,413.4 506.2,413.4 578.8,313.9 578.8,313.9 595,313.9 611.2,313.9 611.2,313.9 533.1,418 533.1,418 
	630.6,533.4 630.6,533.4 613.4,533.4 596,533.4 596,533.4 506.2,424.8 506.2,424.8 "/>
<polygon class="st0" points="650.5,533.4 650.5,313.9 650.5,313.9 663.2,313.9 675.8,313.9 675.8,313.9 675.8,533.4 675.8,533.4 
	663.2,533.4 "/>
<path class="st0" d="M715.3,533.4V313.9h45.1c18.1,0,32,5.2,41.8,15.5s14.7,25,14.7,44s-4.9,33.6-14.8,43.9
	c-4.7,4.9-10.3,8.7-16.6,11.1l0,0l4,3c8.9,6.8,17.7,18.4,26.5,35l35.3,66.9H821l-28.9-56.9c-7.3-14.4-14.2-24.6-20.7-30.5
	c-6-5.8-14.1-9-22.4-8.9h-8.4v96.3L715.3,533.4L715.3,533.4z M740.5,408.2h19.9c10.1,0,17.6-2.7,22.6-8.1s7.5-13.5,7.5-24.5
	s-2.5-19.2-7.5-24.7s-12.6-8.1-22.6-8.1h-19.9V408.2L740.5,408.2z"/>
<path class="st0" d="M1022.4,516.9c-12,7.4-22.7,12.4-32.1,15.4c-10.2,3-20.7,4.5-31.4,4.4c-26.6,0-49.2-10.9-67.6-32.8
	c-18.4-21.8-27.7-48.6-27.7-80.2s9.2-58.4,27.7-80.3c18.4-21.9,41-32.9,67.6-32.8c10.6-0.1,21.2,1.4,31.4,4.4
	c9.4,3,20.1,8,32.1,15.4v34.4c-10.8-9.1-20.9-15.7-30.4-19.6c-10.1-4-20.8-5.9-31.6-5.8c-20.8,0-37.7,7.8-50.8,23.4
	S890,398.7,890,423.6c0,24.8,6.6,45.1,19.7,60.6c13.1,15.6,30,23.4,50.8,23.4c10.8,0.1,21.5-1.9,31.5-5.8
	c9.5-3.9,19.6-10.4,30.4-19.5L1022.4,516.9L1022.4,516.9z"/>
<polygon class="st0" points="1053.5,533.4 1053.5,313.9 1053.5,313.9 1066.1,313.9 1078.7,313.9 1078.7,313.9 1078.7,408.8 
	1078.7,408.8 1177.3,408.8 1177.3,408.8 1177.3,313.9 1177.3,313.9 1189.9,313.9 1202.6,313.9 1202.6,313.9 1202.6,533.4 
	1202.6,533.4 1189.9,533.4 1177.3,533.4 1177.3,533.4 1177.3,436.6 1177.3,436.6 1078.7,436.6 1078.7,436.6 1078.7,533.4 
	1078.7,533.4 1066.1,533.4 "/>
<polygon class="st0" points="1241.6,533.4 1241.6,533.4 1241.6,313.9 1241.6,313.9 1340.7,313.9 1340.7,313.9 1340.7,327.7 
	1340.7,341.7 1340.7,341.7 1266.8,341.7 1266.8,341.7 1266.8,408.8 1266.8,408.8 1338.7,408.8 1338.7,422.6 1338.7,436.6 
	1338.7,436.6 1266.8,436.6 1266.8,436.6 1266.8,505.5 1266.8,505.5 1343.8,505.5 1343.8,505.5 1343.8,519.4 1343.8,533.4 
	1343.8,533.4 "/>
<polygon class="st0" points="1394.5,533.4 1394.5,533.4 1382.5,533.4 1370.4,533.4 1370.4,533.4 1370.4,313.9 1370.4,313.9 
	1381.1,313.9 1391.8,313.9 1391.8,313.9 1509.4,481.4 1509.4,481.4 1509.4,481.4 1509.4,313.9 1509.4,313.9 1521.4,313.9 
	1533.5,313.9 1533.5,313.9 1533.5,535.6 1523.6,535.6 1513.8,535.6 1394.5,365.6 1394.5,365.6 1394.5,365.6 "/>
</svg>
